<svg width="125px" height="30px" viewBox="11 10 125 30" version="1.1" xmlns="http://www.w3.org/2000/svg" xmlns:xlink="http://www.w3.org/1999/xlink">
    <path fill="#ffffff" d="M29.8850206,10.8152286 L38.0819332,10.8152286 L38.0819332,27.3035348 C38.0819332,31.2534718 36.9499899,34.2483628 34.6860694,36.2882974 C32.4221489,38.328232 29.117395,39.348184 24.7717085,39.348184 C20.5821544,39.348184 17.3359493,38.4061901 15.0329957,36.522174 C12.7300421,34.638158 11.461485,31.8771414 11.2272863,28.2390415 L19.4632318,28.2390415 C19.6453863,29.7722408 20.1723254,30.9091299 21.0440649,31.6497431 C21.9158044,32.3903563 23.145329,32.7606574 24.7326756,32.7606574 C26.4761546,32.7606574 27.7707334,32.3578738 28.6164508,31.5522945 C29.4621682,30.7467153 29.8850206,29.4863924 29.8850206,27.7712881 L29.8850206,10.8152286 Z M63.0236268,10.8152286 L71.2205394,10.8152286 L71.2205394,26.5239458 C71.2205394,30.8636793 70.0495636,34.0859481 67.7075769,36.1908487 C65.3655901,38.2957494 61.7745977,39.348184 56.9344918,39.348184 C52.0943859,39.348184 48.5033934,38.2957494 46.1614067,36.1908487 C43.81942,34.0859481 42.6484442,30.8636793 42.6484442,26.5239458 L42.6484442,10.8152286 L50.8453567,10.8152286 L50.8453567,27.1086375 C50.8453567,29.0576196 51.3332633,30.4868518 52.3090911,31.3963767 C53.2849189,32.3059017 54.8267037,32.7606574 56.9344918,32.7606574 C59.0422798,32.7606574 60.5840646,32.3059017 61.5598924,31.3963767 C62.5357202,30.4868518 63.0236268,29.0576196 63.0236268,27.1086375 L63.0236268,10.8152286 Z M95.3035728,19.1958098 C94.8611975,18.1043798 94.1846337,17.3183021 93.2738611,16.8375532 C92.3630885,16.3568043 91.1140477,16.1164334 89.5267011,16.1164334 C87.7311779,16.1164334 86.3715449,16.3113287 85.4477613,16.7011251 C84.5239776,17.0909216 84.0620927,17.6626144 84.0620927,18.4162208 C84.0620927,19.1178544 84.3092987,19.6375751 84.8037181,19.9753987 C85.2981376,20.3132223 86.2609399,20.5990687 87.692154,20.8329465 L93.7032232,21.8074327 C97.3202916,22.3791341 99.9289655,23.3471141 101.529323,24.7114015 C103.129681,26.075689 103.929847,27.9791663 103.929847,30.4218906 C103.929847,33.3583569 102.745861,35.5801632 100.377852,37.087376 C98.0098432,38.5945889 94.5099267,39.348184 89.8779973,39.348184 C85.246068,39.348184 81.7136244,38.5296238 79.2805604,36.8924788 C76.8474964,35.2553338 75.4748526,32.7866602 75.1625877,29.4863838 L83.3595002,29.4863838 C83.619721,30.8116917 84.2702631,31.7861681 85.3111461,32.4098424 C86.3520291,33.0335166 87.8742976,33.3453491 89.8779973,33.3453491 C91.7515867,33.3453491 93.1957902,33.1114748 94.2106511,32.643719 C95.225512,32.1759633 95.7329349,31.5133194 95.7329349,30.6557672 C95.7329349,30.0061065 95.4532018,29.4993788 94.8937272,29.1355688 C94.3342526,28.7717588 93.3649448,28.4859124 91.9857749,28.278021 L87.0285944,27.5374115 C83.2033494,26.96571 80.4060183,25.9652476 78.6365173,24.535994 C76.8670162,23.1067405 75.9822789,21.1447946 75.9822789,18.6500975 C75.9822789,15.9734954 77.2052981,13.8816193 79.6513731,12.3744065 C82.0974481,10.8671937 85.4802671,10.1135986 89.7999315,10.1135986 C93.807331,10.1135986 96.9104169,10.8022286 99.1092822,12.1795093 C101.308148,13.55679 102.65477,15.635673 103.149189,18.4162208 L95.3035728,19.1958098 Z M117.156061,38.6465539 L117.156061,17.5196935 L106.773305,17.5196935 L106.773305,10.8152286 L135.735729,10.8152286 L135.735729,17.5196935 L125.352973,17.5196935 L125.352973,38.6465539 L117.156061,38.6465539 Z"></path>
</svg>