<?xml version="1.0" encoding="utf-8"?>
<!-- Generator: Adobe Illustrator 26.0.3, SVG Export Plug-In . SVG Version: 6.00 Build 0)  -->
<svg version="1.1" id="Vrstva_1" xmlns="http://www.w3.org/2000/svg" xmlns:xlink="http://www.w3.org/1999/xlink" x="0px" y="0px"
	 viewBox="22 15 346 80" xml:space="preserve">
<g fill="#fff">
	<path d="M56.8,45.8c2-2.4,6-4,9.2-4c8.8,0,13.6,5.6,13.6,13.6v24.7h-8V56.2c0-4.8-2.4-7.2-6.4-7.2c-4.7,0-8.6,3.8-8.8,8.4V80h-8
		V56.2c0-4.8-2.4-7.2-6.4-7.2c-4.7,0-8.6,3.8-8.8,8.4V80h-8V42.6h7.2l0.8,3.2l0.4,0.4l0.4-0.4c1.6-2.4,5.6-4,8.8-4
		c5.7,0,9.9,2.5,12,6.4L56.8,45.8z"/>
	<path d="M126.2,80.1H119l-0.8-3.2l-0.4-0.4l-0.4,0.4c-2.4,2.4-6.4,4-10.4,4c-10.4,0-19.1-8-19.1-19.5c0-11.6,8.8-19.5,19.1-19.5
		c4,0,8,1.6,10.4,4l0.4,0.4l0.4-0.4l0.8-3.2h7.2V80.1z M107.5,49c-7.6,0-11.6,5.6-11.6,12.4s4.1,12.4,11.6,12.4
		c6.8,0,11.6-5.6,11.6-12.4S114.2,49,107.5,49z"/>
	<path d="M137.7,42.6h7.2l0.8,4l0.4,0.4l0.4-0.4c2.4-3.2,5.6-4.8,8.8-4.8c1.6,0,2.4,0,4,0.8v7.2h-4.8c-4.7,0-8.6,3.8-8.8,8.4V80h-8
		L137.7,42.6L137.7,42.6z"/>
	<path d="M201.1,80.1h-7.2l-0.8-3.2l-0.4-0.4l-0.4,0.4c-2.4,2.4-6.4,4-10.4,4c-10.4,0-19.1-8-19.1-19.5c0-11.6,8.8-19.5,19.1-19.5
		c4,0,8,1.6,10.4,4l0.4,0.4l0.4-0.4l0.8-3.2h7.2V80.1z M182.4,49c-7.6,0-11.6,5.6-11.6,12.4s4.1,12.4,11.6,12.4
		c6.8,0,11.6-5.6,11.6-12.4S189.2,49,182.4,49z"/>
	<path d="M208.7,42.6h7.3v-8l6.3-8h1.5v15.9h8.1v7.2h-8.1v19.1c0,2.4,1.7,4,4.1,4l4.8-0.8v7.2l-4.4,0.8c-8,0-12.3-4-12.3-11.2v-19
		h-7.3L208.7,42.6L208.7,42.6z"/>
	<path d="M241.8,19.5h8v26.3l0.4,0.4l0.4-0.4c1.6-2.4,5.6-4,8.8-4c9.6,0,15.1,6.4,15.1,15.1V80h-8V57c-0.2-5.1-2.7-8-8-8
		c-4.7,0-8.6,3.8-8.8,8.4V80h-8V19.5H241.8z"/>
	<path d="M302.4,41.8c10.4,0,19.5,8,19.5,19.5c0,11.6-9.2,19.5-19.5,19.5s-19.5-8-19.5-19.5C282.8,49.8,292,41.8,302.4,41.8z
		 M302.4,73.7c7.6,0,11.6-5.6,11.6-12.4s-4-12.4-11.6-12.4s-11.6,5.6-11.6,12.4S294.8,73.7,302.4,73.7z"/>
	<path d="M331.1,42.6h7.2l0.8,3.2l0.4,0.4l0.4-0.4c1.6-2.4,5.6-4,8.8-4c9.6,0,15.1,6.4,15.1,15.1V80h-8V57c-0.2-5.1-2.7-8-8-8
		c-4.7,0-8.6,3.8-8.8,8.4V80h-8V42.6H331.1z"/>
</g>
</svg>
