<svg width="164" height="32" viewBox="0 0 164 32" fill="none" xmlns="http://www.w3.org/2000/svg">
    <g clip-path="url(#clip0_1368_35205)">
        <path d="M59.1775 9.90918H62.4141C64.1865 9.90918 65.4486 10.053 66.2004 10.3405C66.9395 10.6179 67.5738 11.1188 68.0149 11.7735C68.4823 12.4739 68.7221 13.3016 68.7015 14.1434C68.7015 15.102 68.6549 15.8445 68.2743 16.5697C67.9307 17.2242 67.0923 18.2306 66.0742 18.5611L69.4594 24.4959H66.1202L62.6539 18.5611H62.2324V24.4959H59.1775V9.90918ZM62.2324 15.844H63.2532C64.225 15.844 65.053 15.654 65.4051 15.3677C65.7416 15.094 65.7449 14.646 65.7449 14.1086C65.751 13.809 65.6552 13.5162 65.4732 13.2781C65.2871 13.0393 65.033 12.8624 64.7445 12.7707C64.1962 12.6415 63.6326 12.5895 63.07 12.6163H62.2324V15.844Z" fill="white" />
        <path d="M83.5488 9.90918H86.6031V21.8484H91.0533V24.4959H83.5488V9.90918Z" fill="white" />
        <path d="M98.2737 9.90918H101.371L107.543 24.4959H104.369L103.113 21.4913L99.8415 13.7764L95.2599 24.4959H92.0852L98.2737 9.90918Z" fill="white" />
        <path d="M108.323 9.90918H117.192V12.646H114.269V24.4959H111.17V12.646H108.323V9.90918Z" fill="white" />
        <path d="M128.058 12.6281V9.91113H122.353H119.298V12.6281V21.7807V24.4977H122.353H128.058V21.7807H122.353V18.563H127.809V15.8458H122.353V12.6281H128.058Z" fill="white" />
        <path d="M80.7012 12.6281V9.91113H74.9959H71.9412V12.6281V21.7807V24.4977H74.9959H80.7012V21.7807H74.9959V18.563H80.4521V15.8458H74.9959V12.6281H80.7012Z" fill="white" />
        <path d="M32.6279 24.4822V9.89551H35.6527C37.8346 9.89551 39.4181 10.0707 40.4032 10.421C41.7695 10.8792 42.9393 11.7884 43.7205 12.9993C44.5412 14.3073 44.9569 15.8287 44.9156 17.3723C44.9441 18.7189 44.6175 20.0494 43.9685 21.2298C43.4061 22.2718 42.5511 23.1266 41.5089 23.6889C40.5007 24.2178 39.0875 24.4823 37.2693 24.4822L32.6279 24.4822ZM34.0263 23.1039H35.7123C37.7288 23.1039 39.1271 22.9784 39.9073 22.7274C40.9653 22.4002 41.8789 21.72 42.4957 20.8004C43.1481 19.7879 43.4767 18.6008 43.4379 17.397C43.4749 16.1186 43.1184 14.8597 42.4165 13.7906C41.7374 12.7946 40.73 12.0687 39.5701 11.7396C38.6577 11.4622 37.1535 11.3235 35.0577 11.3234H34.0263V23.1039Z" fill="#7488E3" />
        <path d="M0 24.4568V9.87012H0.317388L10.0265 21.0516V9.87012H11.4646V24.4568H11.1373L1.50743 13.4114V24.4568H0Z" fill="#7488E3" />
        <path d="M15.9202 16.4516C16.0075 15.6023 16.2701 14.7803 16.6916 14.0378C17.229 13.0909 18.0113 12.3059 18.9565 11.7652C19.8852 11.2133 20.9455 10.9218 22.0259 10.9216C23.122 10.9207 24.1987 11.2119 25.145 11.7652C25.9966 12.2392 26.7196 12.9138 27.2515 13.7304C27.7833 14.5471 28.1078 15.4812 28.1968 16.4516H29.7124C29.589 14.6545 28.8038 12.967 27.5086 11.715C26.7823 10.9895 25.916 10.4193 24.9624 10.0391C24.0088 9.65895 22.9877 9.47673 21.9614 9.50356C20.624 9.49877 19.3096 9.851 18.1538 10.5239C16.998 11.1968 16.0429 12.1659 15.3869 13.3313C14.8417 14.2896 14.5084 15.3536 14.4094 16.4516H15.9202Z" fill="#7488E3" />
        <path d="M28.1958 17.877C28.1134 18.7398 27.8507 19.5757 27.4249 20.3306C26.8943 21.2742 26.1142 22.0535 25.17 22.5832C24.2132 23.1306 23.1285 23.4149 22.0262 23.4071C20.5014 23.4103 19.0301 22.8457 17.899 21.8233C16.7678 20.801 16.0579 19.3941 15.9077 17.877H14.3962C14.5207 19.6715 15.307 21.3559 16.6027 22.6037C17.3166 23.3273 18.1706 23.8975 19.1126 24.2795C20.0546 24.6614 21.0646 24.8471 22.0808 24.825C23.9932 24.8374 25.8402 24.1294 27.2542 22.8419C28.6682 21.5545 29.5456 19.7819 29.7118 17.877L28.1958 17.877Z" fill="#7488E3" />
        <path d="M47.801 9.87305V9.91142V11.2976V16.4536V17.8782V23.0339V24.4585H49.2258H56.1475V23.0339H49.2258V17.8782H55.8983V16.4536H49.2258V11.2976H56.1475V9.87305H47.801Z" fill="#7488E3" />
        <g style="mix-blend-mode:lighten" opacity="0.6">
            <g style="mix-blend-mode:lighten" opacity="0.6">
                <path d="M144.292 14.7718C143.852 15.212 143.56 15.7779 143.456 16.3913C143.351 17.0047 143.44 17.6354 143.709 18.1963L141.144 20.7609C140.504 20.4539 139.776 20.3832 139.089 20.5612C138.402 20.7393 137.8 21.1546 137.39 21.7337C136.979 22.3129 136.787 23.0185 136.847 23.7257C136.907 24.4329 137.215 25.0961 137.717 25.598C138.219 26.0999 138.882 26.408 139.589 26.468C140.297 26.5279 141.002 26.3358 141.582 25.9255C142.161 25.5153 142.576 24.9134 142.754 24.2263C142.932 23.5393 142.862 22.8114 142.555 22.1715L145.12 19.6069C145.617 19.845 146.17 19.9419 146.719 19.8868C147.267 19.8317 147.79 19.6269 148.23 19.2947C148.67 18.9625 149.01 18.5158 149.213 18.0033C149.416 17.4909 149.474 16.9324 149.381 16.3891C149.288 15.8458 149.048 15.3385 148.686 14.9228C148.324 14.507 147.854 14.1988 147.329 14.0318C146.803 13.8649 146.242 13.8456 145.707 13.9761C145.171 14.1066 144.682 14.3818 144.292 14.7718H144.292Z" fill="#7488E3" />
            </g>
            <g style="mix-blend-mode:lighten" opacity="0.6">
                <path d="M156.228 12.204C155.285 12.2047 154.359 11.9504 153.549 11.4682C152.738 10.9859 152.074 10.2936 151.624 9.46444C151.175 8.63529 150.959 7.70016 150.997 6.758C151.036 5.81585 151.329 4.9017 151.845 4.1123C150.817 4.36707 149.875 4.89022 149.116 5.62824C148.357 6.36627 147.808 7.29267 147.524 8.31272C147.24 9.33276 147.233 10.4098 147.502 11.4338C147.771 12.4577 148.308 13.3918 149.056 14.1404C149.805 14.889 150.739 15.4254 151.763 15.6946C152.787 15.9638 153.865 15.9562 154.885 15.6726C155.905 15.389 156.831 14.8396 157.57 14.0805C158.308 13.3213 158.831 12.3798 159.086 11.3522C158.237 11.9086 157.243 12.2047 156.228 12.204Z" fill="#7488E3" />
            </g>
        </g>
        <g style="mix-blend-mode:lighten" opacity="0.6">
            <path d="M142.558 22.1712L145.124 19.6056C145.763 19.9116 146.491 19.9815 147.177 19.8029C147.864 19.6244 148.465 19.2088 148.874 18.6298C149.284 18.0507 149.475 17.3455 149.415 16.6389C149.355 15.9323 149.046 15.2698 148.545 14.7686L144.292 19.0207L144.295 19.0235L141.975 21.3435L140.654 22.6635L137.722 25.5957C138.223 26.0977 138.886 26.4061 139.594 26.4662C140.301 26.5264 141.006 26.3344 141.585 25.9243C142.164 25.5141 142.58 24.9124 142.758 24.2254C142.936 23.5385 142.865 22.8108 142.558 22.1712Z" fill="#7488E3" />
        </g>
        <g style="mix-blend-mode:lighten" opacity="0.5">
            <path d="M141.971 25.5979L137.719 21.3457C137.44 21.6249 137.218 21.9563 137.067 22.3212C136.916 22.686 136.838 23.077 136.838 23.472C136.838 23.8669 136.915 24.2579 137.066 24.6228C137.218 24.9877 137.439 25.3192 137.718 25.5985C137.998 25.8777 138.329 26.0992 138.694 26.2503C139.059 26.4014 139.45 26.4792 139.845 26.4791C140.24 26.4791 140.631 26.4012 140.996 26.25C141.36 26.0988 141.692 25.8772 141.971 25.5979Z" fill="#D1D7F6" />
        </g>
        <g style="mix-blend-mode:lighten" opacity="0.6">
            <path d="M159.052 11.4217C158.842 12.0133 158.51 12.5543 158.078 13.0097C157.646 13.465 157.123 13.8247 156.543 14.0654C155.963 14.3061 155.339 14.4226 154.711 14.4072C154.084 14.3917 153.466 14.2448 152.899 13.976C152.332 13.7071 151.827 13.3222 151.418 12.8461C151.008 12.3701 150.703 11.8135 150.523 11.2123C150.342 10.6111 150.289 9.97863 150.368 9.35584C150.447 8.73304 150.656 8.13373 150.981 7.59662C150.961 7.41298 150.952 7.22845 150.951 7.04378C150.95 5.99954 151.262 4.9789 151.848 4.11426C150.718 4.39402 149.694 4.99723 148.903 5.84996C148.111 6.70268 147.585 7.76786 147.39 8.91495H137.089C136.854 8.24542 136.389 7.68076 135.777 7.32088C135.165 6.961 134.446 6.8291 133.746 6.94852C133.047 7.06794 132.412 7.43098 131.954 7.9734C131.496 8.51583 131.245 9.20267 131.245 9.91238C131.245 10.6221 131.496 11.3089 131.954 11.8514C132.412 12.3938 133.047 12.7568 133.746 12.8763C134.446 12.9957 135.165 12.8638 135.777 12.5039C136.389 12.144 136.854 11.5793 137.089 10.9098H147.39C147.617 12.2585 148.301 13.4882 149.326 14.3935C150.352 15.2988 151.657 15.8249 153.023 15.8839C154.39 15.9429 155.735 15.5312 156.835 14.7176C157.935 13.904 158.722 12.7378 159.065 11.4138C159.061 11.4166 159.056 11.4189 159.052 11.4217Z" fill="#7488E3" />
        </g>
        <g style="mix-blend-mode:lighten" opacity="0.6">
            <path d="M148.571 9.91354C148.571 8.88393 148.838 7.87181 149.345 6.9755C149.851 6.0792 150.581 5.32919 151.464 4.79833C151.573 4.56451 151.699 4.33913 151.842 4.12402C150.558 4.45519 149.421 5.20361 148.609 6.25161C147.796 7.29961 147.356 8.58776 147.355 9.91354H131.248C131.248 10.6231 131.498 11.3099 131.956 11.8524C132.413 12.3949 133.048 12.758 133.748 12.8774C134.447 12.9969 135.166 12.8649 135.778 12.505C136.39 12.1451 136.854 11.5804 137.089 10.9109H147.44C147.694 12.4065 148.507 13.7497 149.714 14.6686C150.921 15.5875 152.432 16.0133 153.941 15.86C152.469 15.7093 151.105 15.0178 150.113 13.9194C149.121 12.8209 148.572 11.3935 148.571 9.91354Z" fill="#7488E3" />
        </g>
        <g style="mix-blend-mode:lighten" opacity="0.6">
            <path d="M159.067 11.4144C158.213 11.98 157.211 12.2812 156.187 12.2802C155.977 12.279 155.768 12.2654 155.561 12.2394C155.019 12.5588 154.417 12.7609 153.792 12.8326C153.167 12.9044 152.535 12.8441 151.935 12.6557C151.335 12.4673 150.781 12.155 150.31 11.7391C149.838 11.3231 149.46 10.8128 149.198 10.2411C148.936 9.66946 148.798 9.04921 148.791 8.42056C148.784 7.79191 148.91 7.16888 149.159 6.59183C149.409 6.01478 149.777 5.49657 150.24 5.07079C150.702 4.645 151.249 4.32113 151.845 4.12015L151.849 4.11426C150.515 4.44351 149.335 5.22232 148.509 6.31953C147.682 7.41674 147.258 8.76533 147.31 10.1382C147.361 11.511 147.884 12.8243 148.79 13.8568C149.696 14.8893 150.931 15.5781 152.286 15.807V26.1564C151.616 26.3918 151.051 26.8565 150.691 27.4682C150.331 28.0799 150.199 28.7992 150.319 29.4988C150.438 30.1985 150.801 30.8333 151.344 31.291C151.886 31.7487 152.573 31.9997 153.283 31.9997C153.993 31.9997 154.68 31.7487 155.222 31.291C155.765 30.8333 156.128 30.1985 156.247 29.4988C156.367 28.7992 156.235 28.0799 155.875 27.4682C155.515 26.8565 154.95 26.3918 154.281 26.1564V15.807C155.417 15.6137 156.473 15.0963 157.322 14.317C158.171 13.5378 158.777 12.5298 159.067 11.4144Z" fill="#7488E3" />
        </g>
        <g style="mix-blend-mode:lighten" opacity="0.5">
            <path d="M159.067 11.4117C158.854 11.5514 158.63 11.6753 158.398 11.7823C157.751 12.8561 156.782 13.6991 155.629 14.192C154.476 14.6848 153.198 14.8024 151.974 14.5283C150.75 14.2541 149.644 13.6021 148.812 12.6644C147.979 11.7267 147.463 10.551 147.336 9.30371C147.252 10.1355 147.342 10.9758 147.603 11.7703C147.863 12.5648 148.287 13.2959 148.847 13.9164C149.408 14.5369 150.092 15.033 150.856 15.3727C151.62 15.7125 152.447 15.8882 153.283 15.8887V31.9942C153.993 31.9946 154.68 31.7439 155.222 31.2864C155.765 30.829 156.128 30.1944 156.247 29.4949C156.367 28.7955 156.235 28.0763 155.875 27.4648C155.515 26.8533 154.95 26.3888 154.281 26.1537V15.8043C155.417 15.611 156.473 15.0936 157.322 14.3143C158.172 13.5351 158.777 12.5271 159.067 11.4117Z" fill="#D1D7F6" />
        </g>
        <g style="mix-blend-mode:lighten" opacity="0.6">
            <path d="M153.294 15.8926C156.596 15.8926 159.272 13.2166 159.272 9.91553C159.272 6.6145 156.596 3.93848 153.294 3.93848C149.993 3.93848 147.317 6.6145 147.317 9.91553C147.317 13.2166 149.993 15.8926 153.294 15.8926Z" fill="#7488E3" />
        </g>
        <path d="M153.295 0C150.996 0.000348963 148.769 0.798833 146.995 2.25897C145.22 3.7191 144.008 5.75022 143.565 8.00516H144.649C144.99 6.45862 145.74 5.03199 146.821 3.87398C147.901 2.71597 149.273 1.86898 150.792 1.42133C152.312 0.973682 153.923 0.94175 155.459 1.32887C156.995 1.71599 158.399 2.50798 159.525 3.62228C160.65 4.73659 161.456 6.13239 161.859 7.66419C162.261 9.19599 162.245 10.8077 161.813 12.3313C161.38 13.8548 160.547 15.2345 159.399 16.3264C158.252 17.4184 156.833 18.1826 155.29 18.5394V19.6276C157.696 19.1332 159.832 17.7637 161.286 15.7842C162.74 13.8046 163.407 11.3561 163.159 8.91274C162.911 6.46939 161.764 4.20515 159.942 2.55857C158.12 0.911994 155.751 0.000273705 153.295 0H153.295Z" fill="#7488E3" />
        <path d="M145.054 13.1529C144.906 12.7759 144.783 12.389 144.688 11.9951H143.6C143.721 12.5539 143.891 13.101 144.107 13.6303C144.4 13.4297 144.719 13.2692 145.054 13.1529Z" fill="#7488E3" />
        <path d="M150.171 18.1953C150.059 18.5335 149.902 18.8552 149.704 19.1518C150.222 19.3549 150.755 19.5138 151.299 19.6268V18.5385C150.916 18.4495 150.539 18.3349 150.171 18.1953Z" fill="#7488E3" />
    </g>
    <defs>
        <clipPath id="clip0_1368_35205">
            <rect width="163.19" height="32" fill="white" />
        </clipPath>
    </defs>
</svg>