<svg version="1.1" id="Layer_1" xmlns="http://www.w3.org/2000/svg" x="0" y="0" viewBox="0 30 507 100" xml:space="preserve">
    <style>
        .st0 {
            fill: #ffffff
        }
        .st1 {
            fill: #d83735
        }
    </style>
    <path class="st0" d="M117 61.6h11.5v4.6c1.2-2.2 3.3-6 10.4-6v12.3h-.4c-6.3 0-9.2 2.3-9.2 8v21.9H117V61.6zM152.4 86.2c.5 4.3 4.6 7.2 9.4 7.2 3 .2 5.8-1.3 7.4-3.8h12.5c-1.7 4.2-4.6 7.8-8.3 10.4-3.4 2.4-7.5 3.7-11.6 3.7-11.9 0-21.6-9.7-21.6-21.6 0-11.4 9-21.9 21.4-21.9 5.8-.1 11.4 2.3 15.5 6.5 5.1 5.5 6.7 12.1 5.7 19.6h-30.4zm18.4-9.2c-.3-1.9-2.8-6.5-9.1-6.5s-8.8 4.5-9.1 6.5h18.2zM198.2 86.2c.5 4.3 4.6 7.2 9.4 7.2 3 .2 5.8-1.3 7.4-3.8h12.5c-1.7 4.2-4.6 7.8-8.3 10.4-3.4 2.4-7.5 3.7-11.6 3.7-11.9 0-21.6-9.7-21.6-21.6 0-11.4 9-21.9 21.4-21.9 5.8-.1 11.4 2.3 15.5 6.5 5.1 5.5 6.7 12.1 5.7 19.6h-30.4zm18.4-9.2c-.3-1.9-2.8-6.5-9.1-6.5s-8.8 4.5-9.1 6.5h18.2zM232.1 48h12.2v54.4h-12.2V48zM247.9 61.6h11.4v4.3c.6-1.1 1.5-2.1 2.5-2.9 2.5-2 5.7-3 8.9-2.9 3.5-.1 6.9 1.3 9.3 3.9 1 1 1.8 2.1 2.4 3.4.8-1.3 1.8-2.5 2.9-3.5 2.7-2.5 6.3-3.8 10-3.8 2.9 0 7.4.7 10.7 4.1 3.8 4 4.4 6.8 4.4 15.8v22.3h-12.2V80.7c.1-1.9-.2-3.9-.8-5.7-.7-1.9-2.3-3.3-5.5-3.3-3.4 0-5.1 1.5-5.9 3.4-.7 1.6-1 3.3-.9 5.1v22.3h-12.2V80.2c.1-1.7-.2-3.4-.7-5.1-.8-2.2-3-3.7-5.4-3.4-3.5 0-5.1 1.6-6 3.6-.7 1.7-1 3.6-.9 5.4v21.7h-12.2V61.6zM326 86.2c.5 4.3 4.6 7.2 9.4 7.2 3 .2 5.8-1.3 7.4-3.8h12.5c-1.7 4.2-4.6 7.8-8.4 10.5-3.4 2.4-7.5 3.7-11.6 3.7-11.9 0-21.6-9.7-21.6-21.6 0-11.4 9-21.9 21.4-21.9 5.8-.1 11.4 2.3 15.5 6.5 5.1 5.5 6.7 12.1 5.7 19.6H326zm18.3-9.2c-.3-1.9-2.8-6.5-9.1-6.5s-8.8 4.5-9.1 6.5h18.2zM364.8 70.8h-6v-9.3h6V48H377v13.6h5.9v9.3H377v31.5h-12.2V70.8zM386.4 61.6h11.5v4.6c1.2-2.2 3.3-6 10.4-6v12.3h-.4c-6.3 0-9.2 2.3-9.2 8v21.9h-12.2V61.6zM411.5 48h12.2v9.3h-12.2V48zm0 13.6h12.2v40.8h-12.2V61.6zM470.6 86.9c-2.8 11.8-14.6 19.1-26.4 16.3-9.9-2.3-16.8-11.1-16.9-21.3-.1-11.8 9.3-21.5 21.2-21.7h.4c10.8 0 19.6 7.1 21.6 17.1h-12.4c-1.4-3.6-5-5.9-8.8-5.7-2.7-.2-5.3.9-7.1 2.9-1.8 2.1-2.7 4.8-2.7 7.5 0 6 3.9 10.4 9.7 10.4 3.8.1 7.3-2 8.8-5.4l12.6-.1zM493 73.1c-.1-.9-.2-3.1-3.8-3.1-2.6 0-3.5 1.6-3.5 2.7 0 1.8 3 3.1 6.3 4 6.9 1.9 14.3 4 14.3 12.8 0 9-7.6 14.3-16.6 14.3-6.2 0-15.5-2.8-16.6-13.5h12.1c.5 3.8 4.1 3.8 4.6 3.8 2.1 0 4.3-1.2 4.3-3.2 0-2.8-3-3.2-10.8-6.2-5.3-1.6-9.7-5.1-9.7-10.6 0-8.5 7.4-13.8 15.8-13.8 5.4 0 14.6 2.1 15.7 12.9l-12.1-.1z" />
    <path class="st1" d="M70.7 84.3c-1.3 0-2.6-.4-3.8-1l-9.7 7.8c.2.7.3 1.4.3 2.2 0 4.5-3.6 8.1-8.1 8.1s-8.1-3.6-8.1-8.1v-.1l-7.7-3.5c-3 2.9-7.7 3.1-10.9.3L2.2 99.3c5.6 12.3 19.9 17.9 32.3 12.7l-10.3 10.9h51.2L65.1 112c12.7 5.3 27.3-.7 32.6-13.4 1.3-3 1.9-6.3 1.9-9.6v-.7l-22.5-7.2c-1.5 2-3.8 3.2-6.4 3.2z" />
    <path class="st1" d="M19.9 83.9c0-4.5 3.6-8.1 8.1-8.1s8.1 3.6 8.1 8.1v.6l7.3 3.3c2.7-2.9 7-3.5 10.4-1.3l9.3-7.4c-1.5-4.2.6-8.9 4.8-10.4s8.9.6 10.4 4.8c.3.7.4 1.4.5 2.2L98.6 82c-1.1-3.7-3.1-7.1-5.7-9.9L49.8 28.8 6.8 72C1.3 77.8-1 85.9.5 93.8L20 85c-.1-.4-.1-.7-.1-1.1z" />
</svg>