<svg xmlns="http://www.w3.org/2000/svg" width="208" height="30" viewBox="-393 496 236 34">
    <path fill="none" stroke="#2c8ac5" stroke-width="6" stroke-miterlimit="10" d="M-371.3 503.8c-2.5-1.5-5.4-2.8-8.4-2.9-2.8-.1-6.5.9-7.4 3.9-1 3.1 1.4 5.9 4.2 7 3.6 1.5 11.2 2 11.1 7.4 0 1.1-.4 2.1-1.2 2.9-4.3 4.6-12 1-16.4-1.6M-361.8 498.5v28M-332.3 518.5c-1.9 3.1-5.3 5.1-9 5.1-6 0-10.8-5.1-10.8-11.4 0-6.3 4.8-11.4 10.8-11.4 3.4 0 6.5 1.7 8.5 4.4"></path>
    <path fill="none" stroke="#fff" stroke-width="6" stroke-miterlimit="10" d="M-306.1 518.5c-1.9 3.1-5.3 5.1-9 5.1-6 0-10.8-5.1-10.8-11.4 0-6.3 4.8-11.4 10.8-11.4 3.4 0 6.5 1.7 8.5 4.4"></path>
    <ellipse fill="none" stroke="#fff" stroke-width="6" stroke-miterlimit="10" cx="-288.6" cy="512.5" rx="10.8" ry="11.2"></ellipse>
    <path fill="none" stroke="#fff" stroke-width="2.022" stroke-miterlimit="10" d="M-200.2 521.8c-1.2 1.9-3.3 3.2-5.7 3.2-3.7 0-6.8-3.2-6.8-7.1 0-3.9 3-7.1 6.8-7.1 2.2 0 4.1 1.1 5.3 2.7"></path>
    <ellipse fill="none" stroke="#fff" stroke-width="1.985" stroke-miterlimit="10" cx="-189.5" cy="518" rx="6.5" ry="7"></ellipse>
    <path fill="none" stroke="#fff" stroke-width="6" stroke-miterlimit="10" d="M-268.6 501.3v22.2l8.3.1s2.7-.3 4.5-1.5c3.2-2 5.5-4.3 5.5-9.6-.1-5.3-2.9-10.9-8.8-11.2-2-.1-9.5 0-9.5 0zM-224.8 524h-16.5v-22h16.5M-241.8 513h15"></path>
    <path fill="none" stroke="#fff" stroke-width="2" stroke-miterlimit="10" d="M-178.8 510.5v15M-217.8 522.5v3M-178.8 515.7c.3-1.7 1.8-3.8 4-4.4 1.3-.4 2.8-.1 3.9.7 1.2 1 1.3 2.5 1.2 4v9.5"></path>
    <path fill="none" stroke="#fff" stroke-width="2" stroke-miterlimit="10" d="M-169.7 515.7c.3-1.7 1.7-3.8 3.9-4.4 1.3-.4 2.8-.1 3.9.7 1.2 1 1.3 2.5 1.2 4v9.5"></path>
</svg>