<?xml version="1.0" encoding="utf-8"?>
<!-- Generator: Adobe Illustrator 24.0.3, SVG Export Plug-In . SVG Version: 6.00 Build 0)  -->
<svg version="1.1" id="Laag_1" xmlns="http://www.w3.org/2000/svg" xmlns:xlink="http://www.w3.org/1999/xlink" x="0px" y="0px" viewBox="0 0 8671 1516" style="enable-background:new 0 0 8671 1516;" xml:space="preserve">
    <style type="text/css">
        .st0 {
            fill: url(#SVGID_1_);
        }

        .st1 {
            fill: url(#SVGID_2_);
        }

        .st2 {
            stroke: #ffffff;
            fill: #ffffff;
            stroke-width: 17;
            stroke-miterlimit: 10;
        }
    </style>
    <g>
        <g>
            <g>
                <g>

                    <linearGradient id="SVGID_1_" gradientUnits="userSpaceOnUse" x1="3561.5703125" y1="757.9346924" x2="5076.4487305" y2="757.9346924">
                        <stop offset="0" style="stop-color:#46D1BE" />
                        <stop offset="1" style="stop-color:#47DBA4" />
                    </linearGradient>
                    <path class="st0" d="M4318.9189453,0.5614346c-417.6550293,0-757.3486328,339.8134155-757.3486328,757.3516846
					c0,417.6121216,339.6936035,757.3947144,757.3486328,757.3947144
					c417.8056641,0,757.5297852-339.7825928,757.5297852-757.3947144
					C5076.4487305,340.3748474,4736.7246094,0.5614346,4318.9189453,0.5614346z M4318.9189453,1424.8513184
					c-367.7736816,0-666.9228516-299.2410889-666.9228516-666.9381714
					c0-367.6847534,299.1491699-666.8643799,666.9228516-666.8643799c367.8632812,0,666.984375,299.1796265,666.984375,666.8643799
					C4985.9033203,1125.6102295,4686.7822266,1424.8513184,4318.9189453,1424.8513184z" />
                </g>
                <g>

                    <linearGradient id="SVGID_2_" gradientUnits="userSpaceOnUse" x1="3817.3513184" y1="736.7167358" x2="4784.5361328" y2="736.7167358">
                        <stop offset="0" style="stop-color:#46D1BE" />
                        <stop offset="1" style="stop-color:#47DBA4" />
                    </linearGradient>
                    <path class="st1" d="M4563.6201172,847.7546997V224.9315338h-188.7216797l-557.5471191,646.0662231v158.2113647h532.8615723
					v219.2927246h213.4072266v-219.2927246h220.9160156V847.7546997H4563.6201172z M4350.2128906,847.7546997H4080.104248
					l270.1086426-316.524292V847.7546997z" />
                </g>
            </g>
        </g>
    </g>
    <g>
        <polygon class="st2" points="5679.1352539,1013.3498535 5379.5927734,411.703125 5314.9960938,411.703125 
		5314.9960938,1095.998291 5368.8134766,1095.998291 5368.4506836,513.0923462 5658.5615234,1098.043335 5698.5649414,1098.043335 
		5987.6542969,506.1237793 5987.2641602,1096.7209473 6041.8930664,1096.7209473 6041.8930664,410.9219971 
		5973.6894531,410.9219971 	" />
        <polygon class="st2" points="6333.2651367,1096.7209473 6702.4194336,1096.7209473 6702.4194336,1044.5240479 
		6388.6723633,1044.5240479 6388.6723633,774.3413696 6703.2314453,774.3413696 6703.2314453,722.1137085 6389.453125,722.1137085 
		6389.453125,464.4689636 6703.2314453,464.4689636 6703.2314453,412.2443848 6333.2651367,412.2443848 	" />
        <path class="st2" d="M7149.2680664,411.8815002l-198.3925781-0.3598022v683.756958l203.0180664-0.2398682
		c15.6748047,0,29.7905273-0.7197266,43.1557617-2.1619873c135.2324219-13.5158691,231.7875977-81.0861816,286.9277344-200.7949219
		c18.7680664-40.6030273,28.5874023-84.0907593,29.2485352-129.2144775
		c0.6030273-42.7649536-6.9067383-84.8687744-22.3725586-125.1427612
		C7437.2446289,497.5344849,7312.8212891,415.2151184,7149.2680664,411.8815002z M7004.1206055,1045.664917V462.2178345
		l160.9145508,0.5689392c140.9682617,5.1049805,253.2011719,92.2279358,285.8759766,221.9067688
		c5.6157227,22.6741333,8.4384766,46.1016846,8.4384766,69.6461182c0,143.5668335-105.0517578,263.0357056-249.777832,284.0584106
		c-17.9907227,2.5217285-33.7578125,4.2038574-48.0517578,5.2248535l-29.1010742,1.8636475L7004.1206055,1045.664917z" />
        <rect x="7739.4594727" y="411.5831909" class="st2" width="55.4382553" height="684.295105" />
        <path class="st2" d="M8352.8349609,410.9219971h-27.6591797L8318,411l-0.09375-0.0780029h-29.0986328l-303.3862305,684.2982178
		h59.3129883l102.7114258-230.5268555h348.8520508l100.4882812,231.3049316H8657L8352.8349609,410.9219971z
		 M8168.2563477,813.0377197l153.1958008-343.2823486l151.9931641,343.2823486H8168.2563477z" />
    </g>
    <g>
        <polygon class="st2" points="800.6855469,412.213623 628.1217651,1001.2792969 460.4200439,412.213623 416.6955566,412.213623 
		246.8934326,1000.9194946 75.0494156,411.6416321 15.4040403,411.6416321 220.2829437,1095.3400879 271.2189636,1095.3400879 
		437.7183838,518.3172607 602.473877,1096.6594238 655.0305786,1096.6594238 860.0878296,412.213623 	" />
        <path class="st2" d="M1260.2969971,410.9219971L1252,411l1.0299072-0.0780029h-29.0706787l-303.3865967,684.2982178h59.2854614
		l102.7085571-230.5268555h348.8547363l100.5467529,231.3049316h60.1834717l-304.1647949-685.0762939H1260.2969971z
		 M1103.4078369,813.0377197l153.1647949-343.2823486l152.0239258,343.2823486H1103.4078369z" />
        <polygon class="st2" points="2021.3112793,410.6821289 1600.8605957,410.6821289 1600.8605957,462.9067078 
		1783.7573242,462.9067078 1783.7573242,1095.1586914 1839.1955566,1095.1586914 1839.1955566,463.657074 2021.3112793,463.657074 	
		" />
        <polygon class="st2" points="3272.7512207,735.5681152 2928.4602051,735.5681152 2928.4602051,414.5262451 
		2873.8647461,414.5262451 2873.8647461,1096.899292 2927.8605957,1096.899292 2927.8605957,789.145813 3272.7512207,789.145813 
		3272.7512207,1098.2216797 3328.1589355,1098.2216797 3328.1589355,413.2038574 3272.7512207,413.2038574 	" />
        <path class="st2" d="M2485.1879883,1051.852417l-2.2819824-0.0615234
		c-90.9978027-0.3597412-172.5666504-34.4155273-229.7456055-96.0412598
		c-55.6811523-59.9435425-84.2106934-132.2005615-82.4699707-209.0090332
		c2.0419922-92.8890991,45.8894043-174.7564087,123.3713379-230.4960327
		c52.498291-37.420166,115.3234863-57.7816467,181.6943359-58.8641663l5.5263672-0.0276489
		c55.2600098,0,108.5976562,13.5743103,155.5080566,39.4006042v-60.9645691
		c-47.1503906-20.8135376-99.0458984-32.0137634-152.0822754-32.3458862H2482.125
		c-181.1560059,0-329.932373,119.6195374-361.7062988,290.9224548c-4.4470215,24.2670898-6.3076172,48.2020874-5.5263672,70.9961548
		c1.1992188,48.2758789,12.9714355,95.1248779,34.8952637,139.2122192
		c40.784668,82.2886353,112.1403809,145.4182129,200.9150391,177.791748
		c41.6237793,15.1950684,84.8103027,23.0031738,128.359375,23.1845703h0.0583496
		c17.3601074,0,33.6376953-1.0209961,49.7954102-3.1243896c37.7182617-4.8037109,73.8774414-14.8936768,107.8747559-30.0917969
		v-59.882019C2591.2609863,1039.2376709,2542.4897461,1051.852417,2485.1879883,1051.852417z" />
    </g>
</svg>